<?xml version="1.0" encoding="UTF-8" standalone="no"?>
<!DOCTYPE svg PUBLIC "-//W3C//DTD SVG 1.1//EN" "http://www.w3.org/Graphics/SVG/1.1/DTD/svg11.dtd">
<svg version="1.1" xmlns="http://www.w3.org/2000/svg" xmlns:xlink="http://www.w3.org/1999/xlink" preserveAspectRatio="xMidYMid meet" viewBox="0 0 750 1334" width="750" height="1334"><defs><path d="M0 0L750 0L750 1334L0 1334L0 0Z" id="a110CffhI9"></path><path d="M449.45 689.74L452.21 692.5L224.57 920.15L197.79 893.36L401.41 689.74L194 482.33L220.78 455.54L452.21 686.97L449.45 689.74ZM465.53 917.66L465.53 455.54L497.35 455.54L497.35 917.66L465.53 917.66Z" id="a1bVkOtlj6"></path><path d="M182.88 883.44L378.4 687.92L349.48 659L153.96 854.51L182.88 883.44Z" id="fEEi9ftYc"></path><path d="M515.63 454.12L548.38 454.12L548.38 917.13L515.63 917.13L515.63 454.12Z" id="a1ezC834ID"></path></defs><g><g><g><use xlink:href="#a110CffhI9" opacity="1" fill="#ffbd3c" fill-opacity="1"></use></g><g><g><filter id="shadow3118662" x="176" y="437.54" width="349.35" height="501.6" filterUnits="userSpaceOnUse" primitiveUnits="userSpaceOnUse"><feFlood></feFlood><feComposite in2="SourceAlpha" operator="in"></feComposite><feGaussianBlur stdDeviation="1"></feGaussianBlur><feOffset dx="10" dy="1" result="afterOffset"></feOffset><feFlood flood-color="#503200" flood-opacity="0.5"></feFlood><feComposite in2="afterOffset" operator="in"></feComposite><feMorphology operator="dilate" radius="1"></feMorphology><feComposite in2="SourceAlpha" operator="out"></feComposite></filter><path d="M449.45 689.74L452.21 692.5L224.57 920.15L197.79 893.36L401.41 689.74L194 482.33L220.78 455.54L452.21 686.97L449.45 689.74ZM465.53 917.66L465.53 455.54L497.35 455.54L497.35 917.66L465.53 917.66Z" id="d2mjJY3dl" fill="white" fill-opacity="1" filter="url(#shadow3118662)"></path></g><g><filter id="shadow2961542" x="185" y="446.54" width="322.35" height="483.6" filterUnits="userSpaceOnUse" primitiveUnits="userSpaceOnUse"><feFlood></feFlood><feComposite in2="SourceAlpha" operator="in"></feComposite><feGaussianBlur stdDeviation="1"></feGaussianBlur><feOffset dx="1" dy="1" result="afterOffset"></feOffset><feFlood flood-color="#000000" flood-opacity="0.5"></feFlood><feComposite in2="afterOffset" operator="in"></feComposite><feMorphology operator="dilate" radius="1"></feMorphology><feComposite in2="SourceAlpha" operator="out"></feComposite></filter><path d="M449.45 689.74L452.21 692.5L224.57 920.15L197.79 893.36L401.41 689.74L194 482.33L220.78 455.54L452.21 686.97L449.45 689.74ZM465.53 917.66L465.53 455.54L497.35 455.54L497.35 917.66L465.53 917.66Z" id="b2Qy768mmS" fill="white" fill-opacity="1" filter="url(#shadow2961542)"></path></g><use xlink:href="#a1bVkOtlj6" opacity="1" fill="#ffffff" fill-opacity="1"></use></g><g><use xlink:href="#fEEi9ftYc" opacity="1" fill="#000000" fill-opacity="1"></use></g><g><use xlink:href="#a1ezC834ID" opacity="1" fill="#000000" fill-opacity="1"></use></g></g></g></svg>